# xmcd
#
# Track frame offsets: 
#        150
#        15579
#        38883
#        52414
#        65854
#        78566
#        92668
#        105593
#        117765
#        130324
#        146927
#        160318
#        171355
#        183729
#        195170
#
# Disc length: 2816 seconds
#
# Revision: 3
# Processed by: cddbd v1.5.2PL0 Copyright (c) Steve Scherf et al.
# Submitted via: ExactAudioCopyFreeDBPlugin 1.0
#
DISCID=db0afe0f
DTITLE=Paul Mauriat - ポール・モーリア・ベスト30 Disc-2
DYEAR=1990
DGENRE=Easy Listening
TTITLE0=フィーリング
TTITLE1=恋のアランフェス
TTITLE2=レット・イット・ビー
TTITLE3=マイ・ウェイ
TTITLE4=この胸のときめきを
TTITLE5=シバの女王
TTITLE6=蒼いノクターン
TTITLE7=ゴッド・ファーザー
TTITLE8=エマニエル夫人
TTITLE9=愛ある限り
TTITLE10=雪が降る
TTITLE11=口笛の鳴る丘
TTITLE12=涙のトッカータ
TTITLE13=ふたりのミュージック
TTITLE14=ペガサスの涙
EXTD=YEAR: 1990
EXTT0=
EXTT1=
EXTT2=
EXTT3=
EXTT4=
EXTT5=
EXTT6=
EXTT7=
EXTT8=
EXTT9=
EXTT10=
EXTT11=
EXTT12=
EXTT13=
EXTT14=
PLAYORDER=
